<svg width="200" height="20" viewBox="0 0 200 20" fill="none" xmlns="http://www.w3.org/2000/svg">
<g clip-path="url(#clip0_210_20)">
<path d="M80 3.79875C79.2563 4.125 78.4637 4.34125 77.6375 4.44625C78.4875 3.93875 79.1363 3.14125 79.4412 2.18C78.6488 2.6525 77.7738 2.98625 76.8412 3.1725C76.0887 2.37125 75.0162 1.875 73.8462 1.875C71.5763 1.875 69.7487 3.7175 69.7487 5.97625C69.7487 6.30125 69.7762 6.61375 69.8438 6.91125C66.435 6.745 63.4188 5.11125 61.3925 2.6225C61.0387 3.23625 60.8313 3.93875 60.8313 4.695C60.8313 6.115 61.5625 7.37375 62.6525 8.1025C61.9937 8.09 61.3475 7.89875 60.8 7.5975C60.8 7.61 60.8 7.62625 60.8 7.6425C60.8 9.635 62.2212 11.29 64.085 11.6712C63.7512 11.7625 63.3875 11.8062 63.01 11.8062C62.7475 11.8062 62.4825 11.7913 62.2337 11.7362C62.765 13.36 64.2725 14.5538 66.065 14.5925C64.67 15.6838 62.8988 16.3412 60.9813 16.3412C60.645 16.3412 60.3225 16.3263 60 16.285C61.8162 17.4563 63.9688 18.125 66.29 18.125C73.835 18.125 77.96 11.875 77.96 6.4575C77.96 6.27625 77.9538 6.10125 77.945 5.9275C78.7588 5.35 79.4425 4.62875 80 3.79875Z" fill="white"/>
</g>
<path d="M11.5487 20V10.8777H14.6094L15.0686 7.32156H11.5487V5.05147C11.5487 4.0222 11.8333 3.32076 13.311 3.32076L15.1925 3.31999V0.13923C14.8671 0.0969453 13.7502 0 12.4502 0C9.73561 0 7.87715 1.65697 7.87715 4.69927V7.32156H4.80713V10.8777H7.87715V20H11.5487Z" fill="white"/>
<g clip-path="url(#clip1_210_20)">
<path d="M130.002 0H129.998C124.484 0 120 4.485 120 10C120 12.1875 120.705 14.215 121.904 15.8612L120.658 19.5763L124.501 18.3475C126.082 19.395 127.969 20 130.002 20C135.516 20 140 15.5138 140 10C140 4.48625 135.516 0 130.002 0ZM135.821 14.1213C135.58 14.8025 134.622 15.3675 133.859 15.5325C133.336 15.6437 132.654 15.7325 130.356 14.78C127.417 13.5625 125.525 10.5763 125.378 10.3825C125.236 10.1887 124.19 8.80125 124.19 7.36625C124.19 5.93125 124.919 5.2325 125.213 4.9325C125.454 4.68625 125.852 4.57375 126.235 4.57375C126.359 4.57375 126.47 4.58 126.57 4.585C126.864 4.5975 127.011 4.615 127.205 5.07875C127.446 5.66 128.034 7.095 128.104 7.2425C128.175 7.39 128.246 7.59 128.146 7.78375C128.052 7.98375 127.97 8.0725 127.822 8.2425C127.675 8.4125 127.535 8.5425 127.387 8.725C127.252 8.88375 127.1 9.05375 127.27 9.3475C127.44 9.635 128.028 10.5937 128.892 11.3637C130.009 12.3575 130.914 12.675 131.237 12.81C131.479 12.91 131.766 12.8863 131.943 12.6988C132.166 12.4575 132.443 12.0575 132.724 11.6638C132.924 11.3813 133.176 11.3462 133.441 11.4462C133.711 11.54 135.14 12.2462 135.434 12.3925C135.727 12.54 135.921 12.61 135.992 12.7338C136.062 12.8575 136.062 13.4388 135.821 14.1213Z" fill="white"/>
</g>
<g clip-path="url(#clip2_210_20)">
<path d="M194.586 0H185.414C182.429 0 180 2.42858 180 5.41381V14.5863C180 17.5714 182.429 20 185.414 20H194.586C197.571 20 200 17.5714 200 14.5863V5.41381C200 2.42858 197.571 0 194.586 0V0ZM190 15.4686C186.985 15.4686 184.531 13.0154 184.531 9.99998C184.531 6.98454 186.985 4.53139 190 4.53139C193.015 4.53139 195.469 6.98454 195.469 9.99998C195.469 13.0154 193.015 15.4686 190 15.4686ZM195.599 5.82106C194.708 5.82106 193.983 5.09627 193.983 4.20516C193.983 3.31405 194.708 2.58911 195.599 2.58911C196.49 2.58911 197.215 3.31405 197.215 4.20516C197.215 5.09627 196.49 5.82106 195.599 5.82106Z" fill="white"/>
<path d="M190 5.70392C187.631 5.70392 185.704 7.6311 185.704 10C185.704 12.3688 187.631 14.2961 190 14.2961C192.369 14.2961 194.296 12.3688 194.296 10C194.296 7.6311 192.369 5.70392 190 5.70392Z" fill="white"/>
<path d="M195.599 3.76172C195.355 3.76172 195.156 3.96069 195.156 4.20514C195.156 4.44958 195.355 4.64856 195.599 4.64856C195.844 4.64856 196.043 4.44974 196.043 4.20514C196.043 3.96054 195.844 3.76172 195.599 3.76172Z" fill="white"/>
</g>
<defs>
<clipPath id="clip0_210_20">
<rect width="20" height="20" fill="white" transform="translate(60)"/>
</clipPath>
<clipPath id="clip1_210_20">
<rect width="20" height="20" fill="white" transform="translate(120)"/>
</clipPath>
<clipPath id="clip2_210_20">
<rect width="20" height="20" fill="white" transform="translate(180)"/>
</clipPath>
</defs>
</svg>
